<svg width="273" height="339" viewBox="0 0 273 339" fill="none" xmlns="http://www.w3.org/2000/svg">
<path d="M51.3372 85.4327C51.5472 85.3948 51.7465 85.312 51.9215 85.1898C52.0965 85.0677 52.243 84.9091 52.3508 84.7249C52.4587 84.5408 52.5255 84.3355 52.5465 84.1231C52.5675 83.9107 52.5423 83.6963 52.4726 83.4946C50.5078 77.8225 43.3275 58.8747 33.2461 52.9684C23.8515 47.4645 14.4721 49.9148 8.96874 59.3083C3.46542 68.7018 5.91402 78.0817 15.3086 83.5857C25.39 89.4919 45.4292 86.491 51.3372 85.4327ZM13.5003 64.248C13.6196 64.0434 13.7862 63.8704 13.9863 63.7437C14.1863 63.6169 14.4139 63.5401 14.6498 63.5196C14.8857 63.4991 15.1231 63.5356 15.342 63.626C15.5609 63.7163 15.7548 63.858 15.9076 64.0389C16.108 64.2732 16.2293 64.5647 16.2545 64.8719C16.2796 65.1792 16.2071 65.4865 16.0474 65.7502C15.0618 67.441 14.786 69.4533 15.2805 71.3469C15.775 73.2404 16.9995 74.861 18.6859 75.854C18.9542 76.0059 19.1676 76.2386 19.296 76.5188C19.4243 76.7991 19.4609 77.1128 19.4007 77.4151C19.3559 77.6476 19.256 77.866 19.1092 78.0519C18.9625 78.2378 18.7732 78.3857 18.5574 78.4831C18.3416 78.5806 18.1055 78.6248 17.8691 78.6121C17.6326 78.5993 17.4027 78.5299 17.1986 78.4098C14.8325 77.0201 13.1142 74.7486 12.4209 72.0936C11.7276 69.4387 12.1158 66.6171 13.5003 64.248Z" fill="#1053FF"/>
<path d="M69.7984 50.1105C69.8166 50.3232 69.8806 50.5294 69.9859 50.7149C70.0913 50.9005 70.2356 51.0611 70.409 51.1856C70.5823 51.3101 70.7805 51.3956 70.99 51.4363C71.1995 51.4769 71.4153 51.4717 71.6226 51.4211C77.4527 49.9916 96.9856 44.6023 103.803 35.1131C110.155 26.2704 108.587 16.7039 99.7452 10.3518C90.9035 3.9998 81.3367 5.56657 74.9839 14.4093C68.1668 23.8985 69.2934 44.1299 69.7984 50.1105ZM94.406 14.405C94.5986 14.5428 94.7553 14.7248 94.863 14.9357C94.9706 15.1466 95.026 15.3803 95.0245 15.6172C95.023 15.854 94.9646 16.0869 94.8543 16.2965C94.7439 16.506 94.5849 16.686 94.3905 16.8213C94.1387 16.999 93.8372 17.0928 93.5289 17.0893C93.2207 17.0857 92.9214 16.9851 92.6737 16.8015C91.0818 15.6631 89.1037 15.2017 87.1724 15.5181C85.2411 15.8346 83.5138 16.9032 82.3685 18.4902C82.1923 18.7432 81.9408 18.9341 81.6498 19.0358C81.3588 19.1376 81.0432 19.1449 80.7477 19.0568C80.5204 18.9907 80.3122 18.8709 80.1408 18.7075C79.9693 18.5441 79.8397 18.342 79.7626 18.118C79.6856 17.8941 79.6635 17.6549 79.6982 17.4207C79.7329 17.1864 79.8233 16.9639 79.9619 16.7719C81.5653 14.5451 83.9866 13.0452 86.6945 12.6015C89.4024 12.1578 92.1757 12.8064 94.406 14.405Z" fill="#1053FF"/>
<path d="M46.8916 40.5441C47.0232 40.6423 47.1746 40.7109 47.3352 40.745C47.4958 40.7792 47.6619 40.7782 47.8221 40.7421C47.9823 40.706 48.1327 40.6357 48.2632 40.5359C48.3936 40.4362 48.5009 40.3093 48.5776 40.1642C50.734 36.0796 57.6133 22.0883 55.6369 13.3179C53.7952 5.14492 47.49 1.15953 39.318 3.00101C31.1459 4.8425 27.1594 11.147 29.0011 19.32C30.9774 28.0904 43.1927 37.779 46.8916 40.5441ZM38.9219 8.14371C39.0996 8.10326 39.2844 8.10609 39.4607 8.15194C39.6371 8.19779 39.7998 8.28533 39.9353 8.4072C40.0707 8.52906 40.175 8.68168 40.2392 8.85221C40.3033 9.02274 40.3256 9.2062 40.3041 9.38714C40.2777 9.62287 40.1776 9.84426 40.0181 10.0198C39.8586 10.1953 39.6477 10.3161 39.4156 10.3648C37.9473 10.699 36.6712 11.6013 35.8665 12.8741C35.0618 14.1469 34.7941 15.6867 35.1219 17.1565C35.1775 17.3871 35.1588 17.6293 35.0687 17.8487C34.9785 18.0681 34.8215 18.2535 34.6198 18.3784C34.4656 18.4755 34.2903 18.534 34.1087 18.5492C33.9272 18.5643 33.7446 18.5356 33.5764 18.4655C33.4082 18.3954 33.2593 18.2859 33.1423 18.1463C33.0252 18.0067 32.9434 17.841 32.9037 17.6631C32.4418 15.6029 32.816 13.4435 33.9443 11.6589C35.0725 9.87424 36.8627 8.61005 38.9219 8.14371Z" fill="#1053FF"/>
<path d="M107.122 173.889C87.0549 192.59 80.0598 216.438 79.9528 244.03C79.9237 252.022 88.2799 254.16 94.1716 248.769C111.511 236.539 127.32 206.818 118.302 195.093" fill="#246FFF"/>
<path d="M141.033 114.073C99.1104 113.606 64.0715 129.755 56.041 138.719C79.8118 219.695 129.692 214.815 166.762 213.21L167.132 218.062C174.968 217.746 182.022 217.566 187.792 218.319C192.896 218.985 196.867 220.317 199.794 222.524C202.72 224.731 204.888 227.842 206.249 233.253C206.489 234.188 207.002 235.031 207.722 235.674C209.083 239.844 210.615 243.67 212.972 246.174C213.157 248.507 213.21 250.762 213.05 253.912C210.415 273.697 192.22 256.528 181.506 266.746C177.608 270.469 167.851 282.739 169.592 285.796C169.709 286.006 169.885 286.176 170.097 286.287C170.924 286.725 172.513 286.521 175.128 285.427C187.354 282.899 196.094 297.944 207.246 296.904C211.733 296.486 215.058 293.987 217.503 292.082C218.013 296.287 217.576 304.283 221.469 307.992C228.421 314.195 240.914 319.076 239.553 337.037C252.279 323.465 262.852 314.482 249.572 291.873C244.871 284.008 242.149 279.657 244.467 274.154C245.741 272.472 249.435 268.301 250.714 266.391C297.235 217.751 256.222 162.723 219.578 137.999C193.819 120.616 166.184 114.355 141.033 114.073V114.073Z" fill="#246FFF"/>
<path d="M165.241 193.324L136.92 186.343L116.688 165.003L89.4368 141.222L60.6542 152.393L89.2229 196.649L122.954 213.196L127.3 217.43C134.324 218.402 141.276 218.708 147.945 218.665C154.653 218.621 161.124 218.3 167.132 218.057" fill="#D0CFCE"/>
<path d="M168.629 173.889C148.562 192.59 141.567 216.438 141.46 244.03C141.431 252.022 149.787 254.16 155.679 248.769C173.019 236.539 188.827 206.818 179.81 195.093L185.711 175.255L168.629 173.889Z" fill="#246FFF"/>
<path d="M89.7916 196.926C82.7916 210.926 80.0208 226.744 79.9576 244.035C79.9284 252.026 88.275 254.165 94.1666 248.774C105.687 240.651 116.484 224.819 119.824 211.66" stroke="black" stroke-width="2" stroke-linecap="round" stroke-linejoin="round"/>
<path d="M129.74 212.982C127.945 212.768 126.155 212.505 124.374 212.194C97.6861 207.518 71.4021 191.049 56.041 138.719C68.8937 124.374 150.881 91.6437 219.578 137.999C256.217 162.723 297.235 217.746 250.709 266.381C249.431 268.297 245.741 272.472 244.467 274.159C242.149 279.652 244.871 284.008 249.572 291.868C262.852 314.482 252.274 323.465 239.553 337.037C240.914 319.076 228.421 314.19 221.469 307.992C217.576 304.278 218.018 296.282 217.503 292.077C215.058 293.983 211.737 296.486 207.246 296.904C196.094 297.944 187.354 282.904 175.128 285.422C172.513 286.516 170.919 286.72 170.092 286.287C169.88 286.178 169.705 286.009 169.587 285.801C167.851 282.739 177.608 270.469 181.501 266.751C192.215 256.528 210.41 273.702 213.045 253.917C213.376 247.374 212.851 244.667 211.927 237.224C210.391 224.843 205.005 218.582 197.052 215.544" stroke="black" stroke-width="2" stroke-miterlimit="10" stroke-linecap="round" stroke-linejoin="round"/>
<path d="M179.883 195.093C187.796 195.429 194.68 196.274 200.64 197.519M62.8659 157.254C60.8 149.088 68.4076 145.169 78.7618 143.692C106.567 139.706 121.749 181.006 148.893 191.078" stroke="black" stroke-width="2" stroke-linecap="round" stroke-linejoin="round"/>
<path d="M168.629 173.889C148.562 192.59 141.567 216.438 141.46 244.03C141.431 252.022 149.787 254.16 155.679 248.769C173.019 236.539 188.827 206.818 179.81 195.093" stroke="black" stroke-width="2" stroke-linecap="round" stroke-linejoin="round"/>
<path d="M136 149C138.761 149 141 146.761 141 144C141 141.239 138.761 139 136 139C133.239 139 131 141.239 131 144C131 146.761 133.239 149 136 149Z" stroke="black" stroke-width="2" stroke-linecap="round" stroke-linejoin="round"/>
</svg>
