<svg width="1854" height="754" viewBox="0 0 1854 754" fill="none" xmlns="http://www.w3.org/2000/svg">
<path fill-rule="evenodd" clip-rule="evenodd" d="M0 219L52 253.02C103 288.3 206 358.86 309 381.54C412 405.48 515 381.54 618 347.52C721 312.24 824 265.62 927 265.62C1030 265.62 1133 312.24 1236 394.14C1339 474.78 1442 591.96 1545 649.92C1648 709.14 1751 709.14 1803 709.14H1854V754H1745C1693 754 1648 754 1545 754C1442 754 1322.5 754 1219.5 754C1116.5 754 1030 754 927 754C824 754 721 754 618 754C515 754 412 754 309 754C206 754 103 754 52 754H0V219Z" fill="#246FFF"/>
<path fill-rule="evenodd" clip-rule="evenodd" d="M0 536L61.8 548C123.6 560 247.2 584 370.8 572C494.4 560 618 512 741.6 482C865.2 452 988.8 440 1112.4 488C1236 536 1359.6 644 1483.2 644C1606.8 644 1730.4 536 1792.2 482L1854 428V752H1792.2C1730.4 752 1606.8 752 1483.2 752C1359.6 752 1236 752 1112.4 752C988.8 752 865.2 752 741.6 752C618 752 494.4 752 370.8 752C247.2 752 123.6 752 61.8 752H0V536Z" fill="#FFA20D"/>
</svg>
