<svg width="40" height="40" viewBox="0 0 40 40" fill="none" xmlns="http://www.w3.org/2000/svg">
<path d="M20.3333 26.6667C21.2174 26.6667 22.0652 26.3155 22.6904 25.6904C23.3155 25.0652 23.6667 24.2174 23.6667 23.3333C23.6667 22.4493 23.3155 21.6014 22.6904 20.9763C22.0652 20.3512 21.2174 20 20.3333 20C19.4493 20 18.6014 20.3512 17.9763 20.9763C17.3512 21.6014 17 22.4493 17 23.3333C17 24.2174 17.3512 25.0652 17.9763 25.6904C18.6014 26.3155 19.4493 26.6667 20.3333 26.6667ZM30.3333 11.6667C31.2174 11.6667 32.0652 12.0179 32.6904 12.643C33.3155 13.2681 33.6667 14.1159 33.6667 15V31.6667C33.6667 32.5507 33.3155 33.3986 32.6904 34.0237C32.0652 34.6488 31.2174 35 30.3333 35H10.3333C9.44928 35 8.60143 34.6488 7.97631 34.0237C7.35119 33.3986 7 32.5507 7 31.6667V15C7 14.1159 7.35119 13.2681 7.97631 12.643C8.60143 12.0179 9.44928 11.6667 10.3333 11.6667H12V8.33333C12 6.1232 12.878 4.00358 14.4408 2.44078C16.0036 0.877974 18.1232 0 20.3333 0C21.4277 0 22.5113 0.215548 23.5224 0.634337C24.5334 1.05313 25.4521 1.66696 26.2259 2.44078C26.9997 3.2146 27.6135 4.13326 28.0323 5.1443C28.4511 6.15535 28.6667 7.23898 28.6667 8.33333V11.6667H30.3333ZM20.3333 3.33333C19.0073 3.33333 17.7355 3.86012 16.7978 4.7978C15.8601 5.73548 15.3333 7.00725 15.3333 8.33333V11.6667H25.3333V8.33333C25.3333 7.00725 24.8065 5.73548 23.8689 4.7978C22.9312 3.86012 21.6594 3.33333 20.3333 3.33333Z" fill="#1053FF"/>
</svg>
