<svg width="34" height="34" viewBox="0 0 34 34" fill="none" xmlns="http://www.w3.org/2000/svg">
<path d="M14.6667 19.9999L11.0417 16.3749C10.7361 16.0694 10.3611 15.9166 9.91666 15.9166C9.47222 15.9166 9.08333 16.0833 8.75 16.4166C8.44444 16.7221 8.29166 17.111 8.29166 17.5833C8.29166 18.0555 8.44444 18.4444 8.75 18.7499L13.5 23.4999C13.8055 23.8055 14.1944 23.9583 14.6667 23.9583C15.1389 23.9583 15.5278 23.8055 15.8333 23.4999L25.2917 14.0416C25.5972 13.736 25.75 13.361 25.75 12.9166C25.75 12.4721 25.5833 12.0833 25.25 11.7499C24.9444 11.4444 24.5555 11.2916 24.0833 11.2916C23.6111 11.2916 23.2222 11.4444 22.9167 11.7499L14.6667 19.9999ZM17 33.6666C14.6944 33.6666 12.5278 33.2288 10.5 32.3533C8.47222 31.4788 6.70833 30.2916 5.20833 28.7916C3.70833 27.2916 2.52111 25.5277 1.64666 23.4999C0.771106 21.4721 0.333328 19.3055 0.333328 16.9999C0.333328 14.6944 0.771106 12.5277 1.64666 10.4999C2.52111 8.47214 3.70833 6.70825 5.20833 5.20825C6.70833 3.70825 8.47222 2.52047 10.5 1.64492C12.5278 0.770474 14.6944 0.333252 17 0.333252C19.3055 0.333252 21.4722 0.770474 23.5 1.64492C25.5278 2.52047 27.2917 3.70825 28.7917 5.20825C30.2917 6.70825 31.4789 8.47214 32.3533 10.4999C33.2289 12.5277 33.6667 14.6944 33.6667 16.9999C33.6667 19.3055 33.2289 21.4721 32.3533 23.4999C31.4789 25.5277 30.2917 27.2916 28.7917 28.7916C27.2917 30.2916 25.5278 31.4788 23.5 32.3533C21.4722 33.2288 19.3055 33.6666 17 33.6666Z" fill="#F8F8F8"/>
</svg>
